<svg height="1366" node-id="1" sillyvg="true" template-height="1366" template-width="1366" version="1.1" viewBox="0 0 1366 1366" width="1366" xmlns="http://www.w3.org/2000/svg" xmlns:xlink="http://www.w3.org/1999/xlink"><defs node-id="19"></defs><path d="M 1075.00 683.00 C 1075.00 689.41 1074.84 695.82 1074.53 702.23 C 1074.22 708.64 1073.75 715.03 1073.12 721.41 C 1072.49 727.79 1071.71 734.15 1070.76 740.50 C 1069.81 746.85 1068.72 753.18 1067.47 759.50 C 1066.22 765.79 1064.82 772.04 1063.26 778.27 C 1061.70 784.50 1059.99 790.67 1058.13 796.80 C 1056.26 802.94 1054.26 809.03 1052.13 815.07 C 1050.00 821.11 1047.66 827.09 1045.13 833.00 C 1042.68 838.93 1040.08 844.79 1037.34 850.59 C 1034.60 856.39 1031.72 862.12 1028.69 867.77 C 1025.67 873.42 1022.51 878.99 1019.21 884.50 C 1015.91 890.01 1012.48 895.42 1008.92 900.75 C 1005.36 906.08 1001.67 911.33 997.84 916.48 C 994.01 921.63 990.07 926.67 986.00 931.60 C 981.93 936.56 977.75 941.41 973.44 946.16 C 969.13 950.91 964.71 955.55 960.18 960.09 C 955.64 964.63 951.00 969.05 946.25 973.36 C 941.50 977.67 936.65 981.85 931.68 985.92 C 926.72 989.99 921.67 993.94 916.52 997.75 C 911.37 1001.56 906.13 1005.26 900.79 1008.83 C 895.46 1012.39 890.04 1015.82 884.54 1019.12 C 879.04 1022.42 873.46 1025.58 867.81 1028.60 C 862.15 1031.62 856.42 1034.50 850.63 1037.24 C 844.84 1039.98 838.97 1042.58 833.04 1045.04 C 827.12 1047.50 821.14 1049.81 815.10 1051.96 C 809.06 1054.11 802.97 1056.11 796.84 1057.96 C 790.70 1059.83 784.52 1061.54 778.30 1063.10 C 772.08 1064.66 765.82 1066.06 759.53 1067.31 C 753.24 1068.56 746.93 1069.66 740.58 1070.60 C 734.23 1071.54 727.87 1072.34 721.50 1073.00 C 715.12 1073.63 708.73 1074.10 702.32 1074.42 C 695.91 1074.74 689.50 1074.90 683.09 1074.89 C 676.68 1074.89 670.27 1074.73 663.86 1074.42 C 657.45 1074.11 651.06 1073.63 644.68 1073.00 C 638.30 1072.38 631.94 1071.60 625.59 1070.65 C 619.24 1069.70 612.91 1068.61 606.59 1067.36 C 600.30 1066.11 594.05 1064.71 587.83 1063.15 C 581.61 1061.59 575.45 1059.87 569.34 1058.00 C 563.20 1056.14 557.11 1054.14 551.07 1052.00 C 545.03 1049.86 539.05 1047.53 533.13 1045.00 C 527.20 1042.55 521.34 1039.95 515.55 1037.20 C 509.76 1034.45 504.03 1031.57 498.37 1028.56 C 492.71 1025.53 487.13 1022.37 481.63 1019.08 C 476.13 1015.79 470.71 1012.36 465.38 1008.79 C 460.05 1005.22 454.80 1001.52 449.65 997.71 C 444.50 993.90 439.44 989.95 434.49 985.88 C 429.53 981.81 424.68 977.63 419.93 973.32 C 415.18 969.01 410.54 964.60 406.00 960.09 C 401.46 955.56 397.04 950.91 392.74 946.16 C 388.44 941.41 384.25 936.55 380.17 931.60 C 376.10 926.64 372.16 921.59 368.34 916.44 C 364.52 911.29 360.83 906.05 357.26 900.71 C 353.70 895.38 350.27 889.96 346.97 884.46 C 343.67 878.96 340.51 873.38 337.49 867.73 C 334.47 862.07 331.59 856.34 328.85 850.55 C 326.11 844.76 323.51 838.91 321.05 833.00 C 318.60 827.08 316.29 821.10 314.13 815.06 C 311.97 809.02 309.97 802.93 308.13 796.79 C 306.26 790.66 304.55 784.49 303.00 778.26 C 301.45 772.03 300.05 765.78 298.78 759.49 C 297.53 753.20 296.44 746.86 295.49 740.49 C 294.54 734.12 293.76 727.75 293.14 721.40 C 292.51 715.02 292.04 708.63 291.72 702.22 C 291.40 695.81 291.23 689.41 291.22 683.00 C 291.22 676.59 291.38 670.18 291.69 663.77 C 292.00 657.36 292.48 650.97 293.11 644.59 C 293.74 638.21 294.52 631.85 295.46 625.50 C 296.40 619.15 297.50 612.82 298.75 606.50 C 300.00 600.21 301.41 593.96 302.97 587.73 C 304.53 581.50 306.24 575.33 308.10 569.20 C 309.96 563.06 311.96 556.97 314.10 550.93 C 316.24 544.89 318.56 538.91 321.05 533.00 C 323.51 527.07 326.11 521.21 328.85 515.41 C 331.59 509.61 334.47 503.88 337.49 498.23 C 340.50 492.61 343.67 487.05 347.00 481.54 C 350.33 476.03 353.76 470.62 357.29 465.29 C 360.86 459.96 364.56 454.71 368.37 449.56 C 372.18 444.41 376.13 439.35 380.20 434.40 C 384.27 429.44 388.46 424.59 392.77 419.84 C 397.08 415.09 401.49 410.45 406.00 405.91 C 410.53 401.37 415.17 396.95 419.93 392.64 C 424.69 388.33 429.54 384.15 434.49 380.08 C 439.45 376.01 444.50 372.07 449.65 368.25 C 454.80 364.43 460.04 360.74 465.38 357.17 C 470.71 353.61 476.13 350.18 481.63 346.88 C 487.13 343.58 492.71 340.42 498.37 337.40 C 504.02 334.38 509.74 331.50 515.55 328.75 C 521.36 326.00 527.22 323.42 533.13 321.00 C 539.05 318.55 545.03 316.24 551.07 314.08 C 557.11 311.92 563.20 309.92 569.34 308.08 C 575.47 306.22 581.65 304.51 587.88 302.95 C 594.11 301.39 600.36 299.99 606.64 298.74 C 612.93 297.49 619.26 296.40 625.64 295.45 C 632.02 294.50 638.37 293.69 644.68 293.00 C 651.06 292.37 657.45 291.90 663.86 291.58 C 670.27 291.26 676.68 291.10 683.09 291.11 C 689.50 291.11 695.91 291.27 702.32 291.58 C 708.73 291.89 715.13 292.37 721.50 293.00 C 727.88 293.63 734.24 294.41 740.59 295.35 C 746.94 296.29 753.25 297.39 759.54 298.64 C 765.83 299.89 772.09 301.30 778.31 302.85 C 784.53 304.40 790.71 306.12 796.85 308.00 C 802.98 309.87 809.07 311.87 815.11 314.00 C 821.15 316.13 827.13 318.46 833.05 321.00 C 838.98 323.45 844.85 326.05 850.64 328.79 C 856.43 331.53 862.16 334.41 867.82 337.44 C 873.47 340.47 879.05 343.63 884.55 346.92 C 890.05 350.21 895.47 353.64 900.80 357.21 C 906.13 360.78 911.38 364.47 916.53 368.29 C 921.68 372.11 926.74 376.05 931.69 380.12 C 936.65 384.19 941.51 388.37 946.26 392.68 C 951.01 396.99 955.66 401.41 960.19 405.95 C 964.72 410.48 969.14 415.12 973.45 419.88 C 977.76 424.64 981.95 429.48 986.00 434.40 C 990.07 439.36 994.02 444.41 997.83 449.56 C 1001.64 454.71 1005.34 459.95 1008.91 465.29 C 1012.47 470.62 1015.90 476.04 1019.20 481.54 C 1022.50 487.04 1025.66 492.62 1028.68 498.27 C 1031.70 503.93 1034.58 509.66 1037.33 515.45 C 1040.08 521.24 1042.67 527.11 1045.12 533.04 C 1047.58 538.96 1049.89 544.94 1052.04 550.98 C 1054.19 557.02 1056.19 563.11 1058.04 569.25 C 1059.90 575.38 1061.61 581.55 1063.17 587.78 C 1064.73 594.01 1066.13 600.26 1067.38 606.55 C 1068.63 612.84 1069.73 619.18 1070.67 625.55 C 1071.61 631.92 1072.40 638.29 1073.03 644.64 C 1073.65 651.02 1074.12 657.41 1074.44 663.82 C 1074.76 670.23 1074.95 676.62 1075.00 683.00 Z" fill="#eff0f9" fill-rule="nonzero" node-id="21" stroke="none" target-height="783.7933" target-width="783.78" target-x="291.22" target-y="291.10333"/><path d="M 334.08 958.53 C 334.10 972.05 345.05 982.99 358.57 983.00 L 823.92 983.00 L 823.92 493.19 L 334.08 493.19 Z" fill="#ffffff" fill-rule="nonzero" node-id="23" stroke="none" target-height="489.81" target-width="489.84" target-x="334.08" target-y="493.19"/><path d="M 334.08 958.53 C 334.10 972.05 345.05 982.99 358.57 983.00 L 823.92 983.00 L 823.92 493.19 L 334.08 493.19 Z M 358.57 976.90 L 817.80 976.90 L 817.80 499.31 L 340.21 499.31 L 340.21 958.53 C 340.21 968.67 348.43 976.89 358.57 976.90 Z" fill="#000000" fill-rule="evenodd" node-id="25" stroke="none" target-height="489.81" target-width="489.84" target-x="334.08" target-y="493.19"/><path d="M 655.54 900.37 L 499.40 900.37 L 499.40 894.24 L 655.54 894.24 Z" fill="#000000" fill-rule="evenodd" node-id="27" stroke="none" target-height="6.130005" target-width="156.13998" target-x="499.4" target-y="894.24"/><path d="M 253.73 733.00 C 251.09 740.49 252.25 748.80 256.84 755.29 C 261.43 761.78 268.88 765.63 276.83 765.63 L 337.14 765.63 L 337.14 496.25 Z" fill="#2936ff" fill-rule="nonzero" node-id="29" stroke="none" target-height="269.3808" target-width="86.05122" target-x="251.08879" target-y="496.25"/><path d="M 250.85 732.00 L 334.26 495.22 C 334.75 493.81 336.19 492.96 337.66 493.21 C 339.13 493.46 340.21 494.73 340.21 496.22 L 340.21 765.66 C 340.21 766.47 339.89 767.25 339.31 767.83 C 338.73 768.40 337.95 768.72 337.14 768.72 L 276.83 768.72 C 267.89 768.74 259.49 764.40 254.34 757.09 C 251.85 753.59 250.21 749.56 249.57 745.31 C 248.88 740.84 249.32 736.26 250.85 732.00 Z M 256.62 734.00 C 254.31 740.56 255.32 747.83 259.34 753.50 C 263.36 759.18 269.88 762.55 276.83 762.55 L 334.08 762.55 L 334.08 514.15 Z" fill="#000000" fill-rule="evenodd" node-id="31" stroke="none" target-height="275.77957" target-width="91.33261" target-x="248.87738" target-y="492.96072"/><path d="M 817.80 493.19 L 1032.10 493.19 L 1032.10 958.53 C 1032.10 972.06 1021.14 983.02 1007.61 983.03 L 817.80 983.03 Z" fill="#ffffff" fill-rule="nonzero" node-id="33" stroke="none" target-height="489.84003" target-width="214.29999" target-x="817.8" target-y="493.19"/><path d="M 817.80 493.19 L 1032.10 493.19 L 1032.10 958.53 C 1032.10 972.06 1021.14 983.02 1007.61 983.03 L 817.80 983.03 Z M 823.92 499.31 L 1026.00 499.31 L 1026.00 958.53 C 1026.00 968.68 1017.78 976.90 1007.63 976.90 L 823.92 976.90 Z" fill="#000000" fill-rule="evenodd" node-id="35" stroke="none" target-height="489.84003" target-width="214.29999" target-x="817.8" target-y="493.19"/><path d="M 1118.44 736.00 C 1121.11 743.50 1119.97 751.82 1115.38 758.33 C 1110.79 764.83 1103.33 768.70 1095.37 768.70 L 933.05 768.70 C 922.70 768.69 913.47 762.18 910.00 752.43 L 817.80 493.19 L 1032.10 493.19 Z" fill="#ffffff" fill-rule="nonzero" node-id="37" stroke="none" target-height="275.51" target-width="303.30804" target-x="817.8" target-y="493.19"/><path d="M 1032.10 493.19 L 817.80 493.19 L 819.97 499.31 L 909.97 752.43 C 913.44 762.20 922.68 768.72 933.05 768.72 L 1095.37 768.72 C 1103.33 768.72 1110.79 764.85 1115.38 758.35 C 1119.97 751.84 1121.11 743.52 1118.44 736.02 Z M 1110.37 754.82 C 1113.98 750.01 1114.85 743.68 1112.67 738.08 L 1027.78 499.31 L 826.47 499.31 L 915.74 750.38 C 918.34 757.71 925.28 762.60 933.05 762.60 L 1095.37 762.60 C 1101.38 762.77 1107.05 759.83 1110.37 754.82 Z" fill="#000000" fill-rule="evenodd" node-id="39" stroke="none" target-height="275.5315" target-width="303.30804" target-x="817.8" target-y="493.19"/><path d="M 924.95 364.61 C 924.95 383.21 909.87 398.29 891.27 398.29 C 872.67 398.29 857.59 383.21 857.59 364.61 C 857.59 346.01 872.67 330.93 891.27 330.93 C 909.87 330.93 924.95 346.01 924.95 364.61 Z" fill="none" node-id="41" stroke="#000000" stroke-linecap="butt" stroke-width="1" target-height="67.360016" target-width="67.359985" target-x="857.59" target-y="330.93"/><path d="M 432.05 312.56 C 432.05 324.40 422.46 333.99 410.62 333.99 C 398.78 333.99 389.19 324.40 389.19 312.56 C 389.19 300.72 398.78 291.13 410.62 291.13 C 422.46 291.13 432.05 300.72 432.05 312.56 Z" fill="#2936ff" fill-rule="nonzero" node-id="43" stroke="none" target-height="42.859985" target-width="42.859985" target-x="389.19" target-y="291.13"/><path d="M 646.36 438.08 C 646.36 444.85 640.88 450.33 634.11 450.33 C 627.34 450.33 621.86 444.85 621.86 438.08 C 621.86 431.31 627.34 425.83 634.11 425.83 C 640.88 425.83 646.36 431.31 646.36 438.08 Z" fill="#2936ff" fill-rule="nonzero" node-id="45" stroke="none" target-height="24.5" target-width="24.5" target-x="621.86" target-y="425.83"/></svg>
